<svg xmlns="http://www.w3.org/2000/svg" viewBox="0 0 480 900" preserveAspectRatio="xMidYMid slice"><defs><linearGradient id="g" x1="0" y1="0" x2="0" y2="1"><stop stop-color="#315b7a"/><stop offset=".42" stop-color="#6e9470"/><stop offset=".66" stop-color="#36573d"/><stop offset="1" stop-color="#0a1118"/></linearGradient></defs><rect width="480" height="900" fill="url(#g)"/><circle cx="376" cy="140" r="54" fill="#fff1b6" opacity=".75"/><path d="M0 392 93 295l70 70 75-92 92 104 56-61 94 85v170H0Z" fill="#335557"/><path d="M0 485c84-40 168-22 238 14 80 42 157 32 242-6v407H0Z" fill="#315638"/><path d="M0 630c130-50 236-19 337 18 50 19 94 14 143-4v256H0Z" fill="#1d3528"/><ellipse cx="240" cy="557" rx="186" ry="57" fill="#13281e" opacity=".55"/></svg>
